<svg x="0px" y="0px" viewBox="0 0 470.385 470.385" style="enable-background:new 0 0 470.385 470.385; fill: white;" xml:space="preserve">
<g>
	<path d="M419.264,190c0-23.432-16.205-43.141-37.994-48.533c3.107-6.508,4.852-13.787,4.852-21.467
		c0-24.442-17.628-44.844-40.839-49.159c2.923-6.348,4.553-13.407,4.553-20.841c0-27.57-22.43-50-50-50H182.121
		c-72.233,0-131,58.767-131,131v87.299c0,47.802,25.206,91.275,65.78,113.456c33.064,18.074,53.604,52.035,53.604,88.63
		c0,27.57,22.43,50,50,50c27.57,0,50-22.43,50-50c0-39.539-11.638-77.803-33.211-110.385h98.827c27.57,0,50-22.43,50-50
		c0-7.68-1.745-14.958-4.852-21.467C403.059,233.141,419.264,213.432,419.264,190z M369.264,210h-69.428v30h36.286
		c11.028,0,20,8.972,20,20s-8.972,20-20,20H192.466v21.785l3.887,4.288c28.472,31.409,44.152,72.006,44.152,114.312
		c0,11.028-8.972,20-20,20c-11.028,0-20-8.972-20-20c0-47.568-26.521-91.616-69.214-114.953
		c-30.946-16.917-50.17-50.304-50.17-87.132V131c0-55.691,45.309-101,101-101h117.714c11.028,0,20,8.972,20,20s-8.972,20-20,20v30
		h36.286c11.028,0,20,8.972,20,20s-8.972,20-20,20h-36.286v30h69.428c11.028,0,20,8.972,20,20S380.292,210,369.264,210z"/>
</g>
</svg>
